<svg xmlns="http://www.w3.org/2000/svg" width="215.613" height="154.7" viewBox="0 0 215.613 154.7"><g transform="translate(-20.887 -244.9)"><path d="M234.4,303.4c-.6-.5-6-4.6-17.6-4.6a55.941,55.941,0,0,0-9.1.8c-2.2-15.3-14.9-22.7-15.4-23.1l-3.1-1.8-2,2.9a42.761,42.761,0,0,0-5.5,12.8,30.387,30.387,0,0,0,3.6,23.9c-5.3,3-13.9,3.7-15.7,3.8H27.6a6.7,6.7,0,0,0-6.7,6.7,101.189,101.189,0,0,0,6.2,36.5c4.9,12.8,12.2,22.3,21.6,28.1,10.6,6.5,27.9,10.2,47.4,10.2a145.378,145.378,0,0,0,26.3-2.4,108.541,108.541,0,0,0,34.4-12.5,94.157,94.157,0,0,0,23.4-19.2c11.3-12.7,18-26.9,22.9-39.5h2c12.3,0,19.9-4.9,24.1-9.1a26.633,26.633,0,0,0,6.4-9.4l.9-2.6Z" fill="#0091e2"/><path d="M40.8,314h19a1.685,1.685,0,0,0,1.7-1.7v-17a1.685,1.685,0,0,0-1.7-1.7h-19a1.685,1.685,0,0,0-1.7,1.7v17A1.75,1.75,0,0,0,40.8,314ZM67,314H86a1.685,1.685,0,0,0,1.7-1.7v-17a1.685,1.685,0,0,0-1.7-1.7H67a1.685,1.685,0,0,0-1.7,1.7v17A1.75,1.75,0,0,0,67,314m26.7,0h19a1.685,1.685,0,0,0,1.7-1.7v-17a1.685,1.685,0,0,0-1.7-1.7h-19a1.685,1.685,0,0,0-1.7,1.7v17A1.628,1.628,0,0,0,93.7,314Zm26.3,0h19a1.685,1.685,0,0,0,1.7-1.7v-17a1.685,1.685,0,0,0-1.7-1.7H120a1.685,1.685,0,0,0-1.7,1.7v17A1.685,1.685,0,0,0,120,314ZM67,289.7H86a1.752,1.752,0,0,0,1.7-1.7V271a1.685,1.685,0,0,0-1.7-1.7H67a1.685,1.685,0,0,0-1.7,1.7v17a1.828,1.828,0,0,0,1.7,1.7m26.7,0h19a1.752,1.752,0,0,0,1.7-1.7V271a1.685,1.685,0,0,0-1.7-1.7h-19A1.685,1.685,0,0,0,92,271v17a1.685,1.685,0,0,0,1.7,1.7m26.3,0h19a1.752,1.752,0,0,0,1.7-1.7V271a1.752,1.752,0,0,0-1.7-1.7H120a1.685,1.685,0,0,0-1.7,1.7v17a1.752,1.752,0,0,0,1.7,1.7m0-24.4h19a1.685,1.685,0,0,0,1.7-1.7v-17a1.752,1.752,0,0,0-1.7-1.7H120a1.685,1.685,0,0,0-1.7,1.7v17a1.752,1.752,0,0,0,1.7,1.7M146.5,314h19a1.685,1.685,0,0,0,1.7-1.7v-17a1.685,1.685,0,0,0-1.7-1.7h-19a1.685,1.685,0,0,0-1.7,1.7v17a1.75,1.75,0,0,0,1.7,1.7" fill="#0091e2"/></g></svg>