<svg xmlns="http://www.w3.org/2000/svg" xmlns:xlink="http://www.w3.org/1999/xlink" width="218" height="218" viewBox="0 0 218 218"><defs><radialGradient id="a" cx="0.5" cy="0" r="1.126" gradientTransform="translate(0.5 -0.5) rotate(90)" gradientUnits="objectBoundingBox"><stop offset="0" stop-color="#45a2ff"/><stop offset="0.429" stop-color="#51a0ef"/><stop offset="0.645" stop-color="#699dce"/><stop offset="0.704" stop-color="#7e9ab1"/><stop offset="1" stop-color="#ffb258"/></radialGradient><filter id="b" x="44.412" y="59.548" width="129.175" height="136.452" filterUnits="userSpaceOnUse"><feOffset dy="3" input="SourceAlpha"/><feGaussianBlur stdDeviation="3" result="c"/><feFlood flood-opacity="0.161"/><feComposite operator="in" in2="c"/><feComposite in="SourceGraphic"/></filter><filter id="d" x="18.534" y="185.292" width="180.074" height="37.998" filterUnits="userSpaceOnUse"><feOffset dy="3" input="SourceAlpha"/><feGaussianBlur stdDeviation="3" result="e"/><feFlood flood-opacity="0.161"/><feComposite operator="in" in2="e"/><feComposite in="SourceGraphic"/></filter><clipPath id="g"><rect width="218" height="218"/></clipPath></defs><g id="f" clip-path="url(#g)"><rect width="218" height="218" fill="#fff"/><rect width="218" height="218" fill="url(#a)"/><circle cx="111" cy="111" r="111" transform="translate(48 77)" fill="rgba(0,172,125,0.37)"/><circle cx="111" cy="111" r="111" transform="translate(-124 -19)" fill="rgba(33,0,172,0.37)"/><path d="M-640.062-1177.163l-.01,0,.079-2.949-.078.015a8.877,8.877,0,0,1-6.458,4.719q-5.929,1.153-6.982-4.266a6.983,6.983,0,0,1-.1-.816q-.036-.5-.037-1.032t.009-1c.007-.314.019-.567.035-.76l.2-12.386,5.576-1.084-.161,12.378a4.218,4.218,0,0,0-.027.6q.007.346.016.71a6.677,6.677,0,0,0,.055.7q.046.337.084.534a1.792,1.792,0,0,0,1.134,1.327,3.18,3.18,0,0,0,1.94.234,4.9,4.9,0,0,0,2.123-.922,5.567,5.567,0,0,0,1.4-1.6,7.205,7.205,0,0,0,.787-2.028,11.312,11.312,0,0,0,.283-2.215l.178-11.24,5.576-1.084-.288,20.683,5.9-1.146q.861-.167,1.679-.256a5.58,5.58,0,0,1-1.2-.518,4.589,4.589,0,0,1-1.545-1.452,5.413,5.413,0,0,1-.786-1.946,6.058,6.058,0,0,1,1.106-5.1,10.509,10.509,0,0,1,5.286-3.31q1.917-.617,3.347-1.017a14.252,14.252,0,0,0,2.343-.842,3.081,3.081,0,0,0,1.288-1.024,2.09,2.09,0,0,0,.185-1.564,2.085,2.085,0,0,0-.6-1.188,2.616,2.616,0,0,0-1.029-.574,3.828,3.828,0,0,0-1.211-.152,7.438,7.438,0,0,0-1.177.127,5.085,5.085,0,0,0-2.529,1.246,3.222,3.222,0,0,0-1.013,2.541l-5.223,1.014a7.36,7.36,0,0,1,.556-3.429,7.457,7.457,0,0,1,1.8-2.488,9.3,9.3,0,0,1,2.687-1.684,16.734,16.734,0,0,1,3.273-.983,22.647,22.647,0,0,1,2.9-.361,9.869,9.869,0,0,1,2.9.232,5.436,5.436,0,0,1,2.374,1.209,4.317,4.317,0,0,1,1.3,2.62,16.522,16.522,0,0,1,.232,3.5l-.219,8.519a6.924,6.924,0,0,0,.048,1.4q.1.817.212,1.4a4.317,4.317,0,0,0,.426,1.14l-5.576,1.084-.39-2a6.892,6.892,0,0,1-2.417,2.446,9.976,9.976,0,0,1-3.3,1.273l-.038.007a7.748,7.748,0,0,1,1.632.547,6.428,6.428,0,0,1,2.511,2.12,9.411,9.411,0,0,1,1.481,3.746,9.559,9.559,0,0,1-.078,4.315,9.273,9.273,0,0,1-1.8,3.548,11.05,11.05,0,0,1-3.1,2.6,13.094,13.094,0,0,1-4.032,1.477l-7.618,1.48-.167,10.464-6.125,1.191Zm11.381,2.318-5.261,1.022-.094,8.739,6.282-1.221a5.506,5.506,0,0,0,3.478-1.919,4.789,4.789,0,0,0,.634-3.974,3.7,3.7,0,0,0-.713-1.675,2.751,2.751,0,0,0-1.207-.866,4.545,4.545,0,0,0-1.5-.259h-.077A8.059,8.059,0,0,0-628.681-1174.845Zm9.285-15.647q-1.191.374-2.392.689a11.862,11.862,0,0,0-1.481.553,4.508,4.508,0,0,0-1.213.786,2.772,2.772,0,0,0-.735,1.142,3.119,3.119,0,0,0-.052,1.619,1.912,1.912,0,0,0,1.255,1.529,4.07,4.07,0,0,0,2.251.153,5.219,5.219,0,0,0,2.1-.836,4.88,4.88,0,0,0,1.286-1.35,5.1,5.1,0,0,0,.676-1.66,13.956,13.956,0,0,0,.268-1.763l.168-2.07A5.769,5.769,0,0,1-619.4-1190.492Zm8.735,36.349a6.242,6.242,0,0,1-2.286-.758,4.582,4.582,0,0,1-1.546-1.452,5.412,5.412,0,0,1-.786-1.946,6.056,6.056,0,0,1,1.107-5.1,10.5,10.5,0,0,1,5.286-3.309q1.917-.617,3.347-1.017a14.384,14.384,0,0,0,2.342-.842,3.09,3.09,0,0,0,1.289-1.025,2.089,2.089,0,0,0,.185-1.564,2.085,2.085,0,0,0-.6-1.188,2.619,2.619,0,0,0-1.028-.574,3.838,3.838,0,0,0-1.211-.151,7.46,7.46,0,0,0-1.178.127,5.074,5.074,0,0,0-2.528,1.246,3.219,3.219,0,0,0-1.014,2.54l-5.222,1.015a7.357,7.357,0,0,1,.555-3.429,7.457,7.457,0,0,1,1.8-2.489,9.3,9.3,0,0,1,2.688-1.684,16.718,16.718,0,0,1,3.272-.983,22.323,22.323,0,0,1,2.9-.361,9.871,9.871,0,0,1,2.9.231,5.448,5.448,0,0,1,2.374,1.21,4.322,4.322,0,0,1,1.3,2.619,16.48,16.48,0,0,1,.231,3.5l-.218,8.518a6.908,6.908,0,0,0,.047,1.4q.1.817.212,1.406a4.317,4.317,0,0,0,.425,1.139l-5.576,1.084-.389-2a6.91,6.91,0,0,1-2.418,2.446,9.989,9.989,0,0,1-3.3,1.273,10.183,10.183,0,0,1-1.936.2A7.2,7.2,0,0,1-610.66-1154.143ZM-604-1164.83q-1.191.374-2.393.688a12.054,12.054,0,0,0-1.481.554,4.471,4.471,0,0,0-1.212.786,2.76,2.76,0,0,0-.735,1.141,3.1,3.1,0,0,0-.052,1.62,1.91,1.91,0,0,0,1.255,1.528,4.068,4.068,0,0,0,2.251.154,5.237,5.237,0,0,0,2.1-.836,4.919,4.919,0,0,0,1.286-1.35,5.131,5.131,0,0,0,.676-1.66,14.131,14.131,0,0,0,.268-1.764l.168-2.07A5.771,5.771,0,0,1-604-1164.83Zm-142.279-20.782,6.2-1.206-.348,23.783,13.547-2.633-.092,5.4-19.711,3.831Zm157.162,25.549q-2.785-1.639-3.654-6.115a15.637,15.637,0,0,1-.185-5.037,12.42,12.42,0,0,1,1.453-4.479,10.691,10.691,0,0,1,3.058-3.447,11.484,11.484,0,0,1,4.675-1.948,13.968,13.968,0,0,1,3.578-.247,8.631,8.631,0,0,1,3.146.774,6.528,6.528,0,0,1,2.421,1.975,8.149,8.149,0,0,1,1.437,3.306l-5.576,1.084a3.3,3.3,0,0,0-1.427-2.413,4.339,4.339,0,0,0-2.96-.24,4.33,4.33,0,0,0-2.506,1.364A6.388,6.388,0,0,0-587-1173a10.673,10.673,0,0,0-.417,2.994,15.084,15.084,0,0,0,.251,2.865,7.34,7.34,0,0,0,.528,1.67,3.608,3.608,0,0,0,.939,1.264,3.483,3.483,0,0,0,1.381.71,4.148,4.148,0,0,0,1.855.006,4.256,4.256,0,0,0,1.608-.639,4.846,4.846,0,0,0,1.136-1.076,4.512,4.512,0,0,0,.709-1.381,8.3,8.3,0,0,0,.33-1.552l5.576-1.084a12.268,12.268,0,0,1-2.727,6.622,10.543,10.543,0,0,1-6.215,3.347,14.235,14.235,0,0,1-2.712.28A8.423,8.423,0,0,1-589.113-1160.063Zm-131.457-1.37a6.258,6.258,0,0,1-2.286-.758,4.571,4.571,0,0,1-1.545-1.452,5.378,5.378,0,0,1-.786-1.946,6.055,6.055,0,0,1,1.106-5.1,10.5,10.5,0,0,1,5.286-3.309q1.917-.617,3.347-1.018a14.258,14.258,0,0,0,2.343-.842,3.078,3.078,0,0,0,1.288-1.024,2.09,2.09,0,0,0,.185-1.564,2.079,2.079,0,0,0-.6-1.188,2.608,2.608,0,0,0-1.028-.574,3.834,3.834,0,0,0-1.211-.151,7.438,7.438,0,0,0-1.177.127,5.073,5.073,0,0,0-2.529,1.246,3.219,3.219,0,0,0-1.014,2.54l-5.222,1.015a7.357,7.357,0,0,1,.555-3.429,7.486,7.486,0,0,1,1.8-2.489,9.32,9.32,0,0,1,2.688-1.684,16.676,16.676,0,0,1,3.272-.982,22.318,22.318,0,0,1,2.905-.361,9.839,9.839,0,0,1,2.9.231,5.455,5.455,0,0,1,2.374,1.209,4.321,4.321,0,0,1,1.3,2.62,16.527,16.527,0,0,1,.232,3.5l-.219,8.518a6.916,6.916,0,0,0,.047,1.4q.1.817.212,1.406a4.317,4.317,0,0,0,.425,1.139l-5.576,1.084-.389-2a6.9,6.9,0,0,1-2.417,2.446,9.957,9.957,0,0,1-3.3,1.273,10.149,10.149,0,0,1-1.937.2A7.182,7.182,0,0,1-720.57-1161.433Zm6.664-10.687q-1.191.374-2.392.689a11.879,11.879,0,0,0-1.482.553,4.473,4.473,0,0,0-1.212.786,2.76,2.76,0,0,0-.735,1.141,3.112,3.112,0,0,0-.052,1.62,1.912,1.912,0,0,0,1.255,1.528,4.061,4.061,0,0,0,2.251.153,5.233,5.233,0,0,0,2.1-.835,4.919,4.919,0,0,0,1.286-1.35,5.117,5.117,0,0,0,.676-1.66,14.139,14.139,0,0,0,.268-1.764l.168-2.07A5.772,5.772,0,0,1-713.906-1172.12Zm144.127-18.594a16.023,16.023,0,0,1-3.678,1.134,12.054,12.054,0,0,1-3.817.172,7.6,7.6,0,0,1-3.172-1.116,7.717,7.717,0,0,1-2.363-2.413,10.666,10.666,0,0,1-1.4-3.722,14.425,14.425,0,0,1-.127-4.845,13.224,13.224,0,0,1,1.44-4.436,10.85,10.85,0,0,1,2.972-3.471,10.5,10.5,0,0,1,4.47-1.948,13.122,13.122,0,0,1,3.975-.2,8.08,8.08,0,0,1,3.308,1.089,7.75,7.75,0,0,1,2.466,2.414,10.281,10.281,0,0,1,1.438,3.734,17.712,17.712,0,0,1,.3,3.242l-14.96,2.908a1.81,1.81,0,0,0,.03.361c.02.1.041.21.061.314l.1.51a3.953,3.953,0,0,0,1.656,2.653,4.686,4.686,0,0,0,3.591.443,4.073,4.073,0,0,0,1.423-.542,4.439,4.439,0,0,0,1.013-.869,4.79,4.79,0,0,0,.689-1.071q.274-.582.5-1.115l5.576-1.084a14.5,14.5,0,0,1-.984,3.329,8.928,8.928,0,0,1-1.735,2.6,8.4,8.4,0,0,1-1.3,1.1l4.1-.8-.258,15.861.094.063,6.538-9.135,6.871-1.336-7.613,9.467,7.672,11.588-6.125,1.191-5.1-8.421-2.425,3.038-.092,6.864-5.537,1.075Zm-4.539-16.506a5.809,5.809,0,0,0-2.012.758,5.33,5.33,0,0,0-1.388,1.248,5.532,5.532,0,0,0-.851,1.591,10.64,10.64,0,0,0-.445,1.8l9.306-1.809a8.924,8.924,0,0,0-.439-1.524,3.963,3.963,0,0,0-.8-1.292,2.812,2.812,0,0,0-1.333-.779,3.351,3.351,0,0,0-.9-.112A6,6,0,0,0-574.319-1207.22Zm-96.9,43.693a9,9,0,0,1-3.009-.6,6.347,6.347,0,0,1-2.4-1.652A5.978,5.978,0,0,1-678-1168.73l5.537-1.076a2.453,2.453,0,0,0,.534,1.282,2.709,2.709,0,0,0,1.021.739,3.706,3.706,0,0,0,1.3.277,5.943,5.943,0,0,0,1.366-.1,4.206,4.206,0,0,0,2.111-.98,5.064,5.064,0,0,0,1.221-1.786,9.5,9.5,0,0,0,.625-2.444q.18-1.38.329-2.916l-.094-.063a6.806,6.806,0,0,1-5.018,3.95,8.769,8.769,0,0,1-3.373.044,6.77,6.77,0,0,1-2.783-1.211,7.924,7.924,0,0,1-2.058-2.309,10.086,10.086,0,0,1-1.211-3.289,14.9,14.9,0,0,1-.171-4.551,13.179,13.179,0,0,1,1.239-4.315,10.622,10.622,0,0,1,2.67-3.453,8.805,8.805,0,0,1,4.128-1.923,8.228,8.228,0,0,1,3.891.1,5.531,5.531,0,0,1,3.023,2.346l.079-.015.025-3.224,5.34-1.039-.3,20.027a16.314,16.314,0,0,1-.611,4.193,8.4,8.4,0,0,1-1.692,3.141,9.2,9.2,0,0,1-2.914,2.2,17,17,0,0,1-4.279,1.362,14.033,14.033,0,0,1-2.677.253Q-670.984-1163.52-671.223-1163.527Zm2.432-25.33a4.27,4.27,0,0,0-2.328,1.227,6.638,6.638,0,0,0-1.4,2.209,9.329,9.329,0,0,0-.6,2.684,9.9,9.9,0,0,0,.127,2.644,6.681,6.681,0,0,0,.548,1.666,4.227,4.227,0,0,0,.966,1.3,3.344,3.344,0,0,0,1.369.753,3.811,3.811,0,0,0,1.757.025,4.777,4.777,0,0,0,2.47-1.234,6.323,6.323,0,0,0,1.487-2.2,8.92,8.92,0,0,0,.615-2.707,10.333,10.333,0,0,0-.146-2.743,5.022,5.022,0,0,0-1.6-2.97,3.272,3.272,0,0,0-2.2-.758A5.571,5.571,0,0,0-668.791-1188.857Zm-32.868,2.6,5.341-1.038-.079,2.949.078-.015a8.834,8.834,0,0,1,6.451-4.758q5.929-1.153,6.989,4.306a5.239,5.239,0,0,1,.078.82q.017.506.018,1.036c0,.353,0,.686-.009,1s-.006.564,0,.753l-.2,12.386-5.576,1.084.161-12.379q-.013-.486-.028-1.3a7.7,7.7,0,0,0-.1-1.245,1.794,1.794,0,0,0-1.134-1.328,3.181,3.181,0,0,0-1.94-.234,4.907,4.907,0,0,0-2.123.922,5.579,5.579,0,0,0-1.4,1.6,7.231,7.231,0,0,0-.788,2.028,11.331,11.331,0,0,0-.283,2.215l-.178,11.24-5.536,1.076Zm100.957,9.022a8.947,8.947,0,0,1-3.009-.6,6.34,6.34,0,0,1-2.4-1.652,5.974,5.974,0,0,1-1.369-2.953l5.536-1.076a2.447,2.447,0,0,0,.535,1.282,2.714,2.714,0,0,0,1.02.739,3.718,3.718,0,0,0,1.3.277,5.881,5.881,0,0,0,1.365-.1,4.22,4.22,0,0,0,2.112-.981,5.073,5.073,0,0,0,1.221-1.786,9.524,9.524,0,0,0,.625-2.443q.18-1.38.329-2.917l-.094-.063a6.806,6.806,0,0,1-5.019,3.95,8.766,8.766,0,0,1-3.373.044,6.766,6.766,0,0,1-2.782-1.211,7.9,7.9,0,0,1-2.058-2.309,10.086,10.086,0,0,1-1.211-3.29,14.87,14.87,0,0,1-.171-4.551,13.179,13.179,0,0,1,1.239-4.315,10.583,10.583,0,0,1,2.67-3.452,8.788,8.788,0,0,1,4.128-1.923,8.218,8.218,0,0,1,3.891.1,5.531,5.531,0,0,1,3.023,2.346l.078-.015.025-3.224,5.341-1.038-.3,20.026a16.352,16.352,0,0,1-.611,4.193,8.411,8.411,0,0,1-1.692,3.141,9.178,9.178,0,0,1-2.915,2.2,16.987,16.987,0,0,1-4.279,1.362,13.989,13.989,0,0,1-2.67.254Q-600.461-1177.227-600.7-1177.235Zm2.432-25.33a4.269,4.269,0,0,0-2.329,1.228,6.625,6.625,0,0,0-1.4,2.208,9.332,9.332,0,0,0-.6,2.684,9.821,9.821,0,0,0,.127,2.644,6.7,6.7,0,0,0,.547,1.667,4.25,4.25,0,0,0,.966,1.3,3.366,3.366,0,0,0,1.369.752,3.815,3.815,0,0,0,1.758.025,4.777,4.777,0,0,0,2.47-1.234,6.325,6.325,0,0,0,1.487-2.2,8.939,8.939,0,0,0,.615-2.707,10.4,10.4,0,0,0-.146-2.742,5.012,5.012,0,0,0-1.6-2.97,3.269,3.269,0,0,0-2.2-.759A5.562,5.562,0,0,0-598.271-1202.565Z" transform="translate(758.664 1217.988)" fill="#fff"/><path d="M-640.926-1147.832l.356-28.727-.019,0,.051-1.883a9.4,9.4,0,0,1-5.9,3.552,10.7,10.7,0,0,1-2.026.211,5.382,5.382,0,0,1-3.686-1.243,6.3,6.3,0,0,1-1.857-3.63,7.41,7.41,0,0,1-.106-.875c-.025-.349-.038-.708-.038-1.068s0-.7.009-1.011.019-.57.035-.774l.207-12.775,6.577-1.278-.169,13.021,0,.029a3.74,3.74,0,0,0-.023.524c0,.227.01.463.016.7a6.216,6.216,0,0,0,.051.651c.029.214.056.384.079.5a1.294,1.294,0,0,0,.845.965,2.78,2.78,0,0,0,1.131.251,2.672,2.672,0,0,0,.511-.05,4.425,4.425,0,0,0,1.911-.825,5.1,5.1,0,0,0,1.277-1.454,6.74,6.74,0,0,0,.732-1.888,10.867,10.867,0,0,0,.27-2.115l.185-11.641,6.578-1.278-.288,20.683,5.295-1.029.066-.013a5.046,5.046,0,0,1-1.453-1.448,5.935,5.935,0,0,1-.858-2.124,6.565,6.565,0,0,1,1.2-5.507,11.039,11.039,0,0,1,5.529-3.48c1.284-.413,2.417-.757,3.364-1.022a13.841,13.841,0,0,0,2.259-.811,2.622,2.622,0,0,0,1.086-.845,1.636,1.636,0,0,0,.115-1.2,1.616,1.616,0,0,0-.442-.913,2.1,2.1,0,0,0-.834-.465,3.369,3.369,0,0,0-1.054-.132,6.96,6.96,0,0,0-1.1.118,4.614,4.614,0,0,0-2.286,1.123,2.721,2.721,0,0,0-.852,2.166l.006.418-6.2,1.2-.029-.576a7.886,7.886,0,0,1,.6-3.66,7.986,7.986,0,0,1,1.918-2.653,9.844,9.844,0,0,1,2.83-1.775,17.321,17.321,0,0,1,3.371-1.012,23.267,23.267,0,0,1,2.969-.369c.236-.014.473-.022.7-.022a10.12,10.12,0,0,1,2.341.266,5.955,5.955,0,0,1,2.588,1.319,4.816,4.816,0,0,1,1.466,2.906,17.109,17.109,0,0,1,.24,3.6l-.22,8.549a6.466,6.466,0,0,0,.046,1.294c.064.534.133.995.206,1.369a3.848,3.848,0,0,0,.379,1.005l.308.594-6.723,1.307-.26-1.339a7.487,7.487,0,0,1-1.892,1.624,10.516,10.516,0,0,1-1.865.894l.114.052a6.954,6.954,0,0,1,2.7,2.28,9.943,9.943,0,0,1,1.567,3.943,10.1,10.1,0,0,1-.086,4.538,9.811,9.811,0,0,1-1.892,3.736,11.6,11.6,0,0,1-3.24,2.717,13.658,13.658,0,0,1-4.185,1.534l-7.22,1.4-.167,10.464Zm1.371-29.936-.356,28.72,5.124-1,.167-10.464,8.016-1.558a12.655,12.655,0,0,0,3.879-1.42,10.6,10.6,0,0,0,2.963-2.482,8.819,8.819,0,0,0,1.7-3.359,9.109,9.109,0,0,0,.071-4.091,8.968,8.968,0,0,0-1.4-3.549,5.965,5.965,0,0,0-2.317-1.959,7.283,7.283,0,0,0-1.528-.512l-1.612-.353-2.248.244c-.529.057-1.081.141-1.638.25l-6.5,1.264.288-20.683-4.573.889-.172,10.84a11.869,11.869,0,0,1-.295,2.313,7.741,7.741,0,0,1-.843,2.168,6.092,6.092,0,0,1-1.526,1.739,5.412,5.412,0,0,1-2.336,1.019,3.675,3.675,0,0,1-.7.068,3.772,3.772,0,0,1-1.536-.336,2.3,2.3,0,0,1-1.422-1.689c-.027-.141-.056-.324-.088-.562a7.218,7.218,0,0,1-.059-.757q-.01-.366-.016-.713a4.841,4.841,0,0,1,.027-.64l.153-11.736-4.574.889-.2,12.014c-.015.183-.027.429-.033.73s-.01.623-.009.987c0,.337.012.672.036,1a6.561,6.561,0,0,0,.09.756c.532,2.736,2.024,4.065,4.561,4.065a9.71,9.71,0,0,0,1.835-.193,8.959,8.959,0,0,0,3.613-1.52,8.6,8.6,0,0,0,2.5-2.943l.112-.21.924-.18-.079,2.953Zm19.727-21.471a4.33,4.33,0,0,1,1.222.174,3.124,3.124,0,0,1,1.223.683,2.577,2.577,0,0,1,.753,1.464,2.573,2.573,0,0,1-.256,1.931,3.576,3.576,0,0,1-1.49,1.2,14.8,14.8,0,0,1-2.427.874c-.935.261-2.055.6-3.328,1.011a10.08,10.08,0,0,0-5.044,3.141,5.534,5.534,0,0,0-1.01,4.7,4.937,4.937,0,0,0,.713,1.767,4.113,4.113,0,0,0,1.38,1.294,5.1,5.1,0,0,0,1.091.471l1.674.511,2.145-.414a9.518,9.518,0,0,0,3.132-1.209,6.429,6.429,0,0,0,2.245-2.271l.669-1.145.547,2.813,4.463-.867a4.022,4.022,0,0,1-.2-.674c-.079-.4-.15-.876-.217-1.442a7.485,7.485,0,0,1-.051-1.483l.218-8.5a16.113,16.113,0,0,0-.223-3.391l0-.011a3.858,3.858,0,0,0-1.141-2.328,4.965,4.965,0,0,0-2.16-1.1,9.418,9.418,0,0,0-2.752-.22,22.288,22.288,0,0,0-2.84.353,16.32,16.32,0,0,0-3.175.953,8.846,8.846,0,0,0-2.544,1.593,6.994,6.994,0,0,0-1.679,2.324,6.511,6.511,0,0,0-.524,2.619l4.246-.825a3.62,3.62,0,0,1,1.163-2.494,5.6,5.6,0,0,1,2.772-1.369,7.978,7.978,0,0,1,1.257-.136Zm10.2,45.667a7.726,7.726,0,0,1-1.106-.077,6.766,6.766,0,0,1-2.467-.821,5.1,5.1,0,0,1-1.711-1.609,5.935,5.935,0,0,1-.858-2.124,6.562,6.562,0,0,1,1.2-5.507,11.025,11.025,0,0,1,5.529-3.479c1.28-.412,2.412-.756,3.364-1.022a13.954,13.954,0,0,0,2.258-.811,2.63,2.63,0,0,0,1.087-.847,1.633,1.633,0,0,0,.113-1.2,1.616,1.616,0,0,0-.443-.913,2.1,2.1,0,0,0-.834-.465,3.383,3.383,0,0,0-1.053-.131,7,7,0,0,0-1.1.118,4.605,4.605,0,0,0-2.284,1.122,2.718,2.718,0,0,0-.853,2.165l.006.418-6.2,1.2-.029-.576a7.881,7.881,0,0,1,.6-3.66,7.989,7.989,0,0,1,1.918-2.653,9.841,9.841,0,0,1,2.831-1.775,17.3,17.3,0,0,1,3.37-1.012c.651-.126,1.332-.225,2.035-.295a6.865,6.865,0,0,1-2.232-1.631,6.492,6.492,0,0,1-1.49-3.194l-.1-.491,6.543-1.272.074.52a1.971,1.971,0,0,0,.418,1.026,2.2,2.2,0,0,0,.834.6,3.236,3.236,0,0,0,1.123.239c.077,0,.153,0,.229,0a5.36,5.36,0,0,0,1.022-.1,3.754,3.754,0,0,0,1.868-.857,4.6,4.6,0,0,0,1.1-1.613,9.076,9.076,0,0,0,.591-2.316q.065-.5.126-1.023a7.142,7.142,0,0,1-4.319,2.549,10.279,10.279,0,0,1-1.954.2,8.417,8.417,0,0,1-1.611-.152,7.293,7.293,0,0,1-2.984-1.3,8.432,8.432,0,0,1-2.189-2.453,10.629,10.629,0,0,1-1.272-3.451,15.441,15.441,0,0,1-.177-4.7,13.739,13.739,0,0,1,1.287-4.478,11.127,11.127,0,0,1,2.8-3.614,9.32,9.32,0,0,1,4.358-2.034,10.077,10.077,0,0,1,1.919-.193,7.944,7.944,0,0,1,2.206.3,5.578,5.578,0,0,1,2.473,1.526l.018-2.352,6.347-1.233-.314,20.649a16.924,16.924,0,0,1-.632,4.322,8.946,8.946,0,0,1-1.793,3.325,9.717,9.717,0,0,1-3.072,2.317,17.568,17.568,0,0,1-4.4,1.4c-.44.085-.888.15-1.34.194a5.813,5.813,0,0,1,1.115.769,4.819,4.819,0,0,1,1.466,2.9,17.059,17.059,0,0,1,.239,3.6l-.22,8.55a6.453,6.453,0,0,0,.045,1.292c.063.527.132.987.207,1.37a3.848,3.848,0,0,0,.378,1.005l.307.593-6.722,1.307-.26-1.339a7.517,7.517,0,0,1-1.892,1.624,10.539,10.539,0,0,1-3.462,1.336A10.733,10.733,0,0,1-609.625-1153.571Zm5.2-20.005a4.339,4.339,0,0,1,1.221.173,3.13,3.13,0,0,1,1.223.683,2.577,2.577,0,0,1,.753,1.463,2.569,2.569,0,0,1-.255,1.931,3.584,3.584,0,0,1-1.491,1.2,14.937,14.937,0,0,1-2.425.874c-.94.263-2.06.6-3.329,1.012a10.067,10.067,0,0,0-5.044,3.14,5.531,5.531,0,0,0-1.011,4.7,4.937,4.937,0,0,0,.713,1.768,4.109,4.109,0,0,0,1.38,1.294,5.778,5.778,0,0,0,2.105.695,6.734,6.734,0,0,0,.963.066,9.734,9.734,0,0,0,1.84-.191,9.535,9.535,0,0,0,3.134-1.209,6.445,6.445,0,0,0,2.246-2.271l.67-1.145.546,2.813,4.463-.868a3.938,3.938,0,0,1-.2-.675c-.079-.405-.152-.891-.218-1.442a7.474,7.474,0,0,1-.05-1.483l.217-8.5a16.062,16.062,0,0,0-.222-3.392l0-.011a3.862,3.862,0,0,0-1.141-2.328,4.978,4.978,0,0,0-2.16-1.1,9.423,9.423,0,0,0-2.752-.219,21.926,21.926,0,0,0-2.839.353,16.283,16.283,0,0,0-3.175.953,8.847,8.847,0,0,0-2.545,1.593,6.993,6.993,0,0,0-1.679,2.324,6.509,6.509,0,0,0-.524,2.619l4.246-.825a3.616,3.616,0,0,1,1.164-2.493,5.59,5.59,0,0,1,2.771-1.369,8.015,8.015,0,0,1,1.257-.136Zm-2.45-8.468a5.2,5.2,0,0,0,1.137,2.224,5.875,5.875,0,0,0,2.212,1.524,8.493,8.493,0,0,0,2.842.562,13.706,13.706,0,0,0,3.04-.237,16.581,16.581,0,0,0,4.152-1.319,8.727,8.727,0,0,0,2.759-2.076,7.954,7.954,0,0,0,1.591-2.957,15.928,15.928,0,0,0,.59-4.061l.295-19.406-4.335.842-.025,3.223-.8.158-.186-.272a5.071,5.071,0,0,0-2.749-2.148,6.945,6.945,0,0,0-1.929-.264,9.089,9.089,0,0,0-1.728.175,8.337,8.337,0,0,0-3.9,1.812,10.135,10.135,0,0,0-2.546,3.291,12.74,12.74,0,0,0-1.192,4.153,14.44,14.44,0,0,0,.165,4.4,9.636,9.636,0,0,0,1.148,3.127,7.44,7.44,0,0,0,1.928,2.166,6.3,6.3,0,0,0,2.579,1.122,7.406,7.406,0,0,0,1.419.134,9.269,9.269,0,0,0,1.763-.178,6.279,6.279,0,0,0,4.665-3.678l.252-.516.818.55-.029.3c-.1,1.026-.212,2.013-.331,2.933a10.07,10.07,0,0,1-.66,2.572,5.594,5.594,0,0,1-1.342,1.959,4.728,4.728,0,0,1-2.357,1.106,6.433,6.433,0,0,1-1.481.111,4.233,4.233,0,0,1-1.469-.315,3.223,3.223,0,0,1-1.206-.874,2.713,2.713,0,0,1-.541-1.024Zm-140.307,26.213.414-30.194,7.207-1.4-.348,23.783,13.548-2.634-.109,6.42Zm1.4-29.368-.386,28.151,18.709-3.637.074-4.375-13.545,2.633.348-23.783Zm138.524,27.429a4.328,4.328,0,0,1-1.535-.275,2.42,2.42,0,0,1-1.569-1.9,3.6,3.6,0,0,1,.071-1.88,3.268,3.268,0,0,1,.867-1.343,4.987,4.987,0,0,1,1.347-.875,12.606,12.606,0,0,1,1.543-.577l.018-.005c.789-.206,1.586-.436,2.37-.682a5.3,5.3,0,0,0,1.946-1.105l.932-.829-.269,3.313a14.7,14.7,0,0,1-.278,1.829,5.655,5.655,0,0,1-.741,1.82,5.44,5.44,0,0,1-1.415,1.488,5.75,5.75,0,0,1-2.3.923A5.206,5.206,0,0,1-607.258-1157.77Zm1-5.89a11.6,11.6,0,0,0-1.411.528,4,4,0,0,0-1.078.7,2.25,2.25,0,0,0-.6.938,2.636,2.636,0,0,0-.034,1.361,1.412,1.412,0,0,0,.94,1.156,3.332,3.332,0,0,0,1.182.211,4.2,4.2,0,0,0,.8-.08,4.774,4.774,0,0,0,1.9-.75,4.446,4.446,0,0,0,1.158-1.213,4.658,4.658,0,0,0,.61-1.5,13.71,13.71,0,0,0,.259-1.7l.079-.971a6.279,6.279,0,0,1-1.391.63C-604.642-1164.1-605.452-1163.87-606.254-1163.661Zm21.494,5.185h0a8.951,8.951,0,0,1-4.605-1.156c-1.976-1.163-3.286-3.333-3.891-6.45a16.2,16.2,0,0,1-.19-5.2,12.975,12.975,0,0,1,1.512-4.658,11.238,11.238,0,0,1,3.2-3.607,12.029,12.029,0,0,1,4.875-2.036,14.947,14.947,0,0,1,2.844-.283c.288,0,.578.009.862.028a9.165,9.165,0,0,1,3.326.82,7.053,7.053,0,0,1,2.6,2.123,8.674,8.674,0,0,1,1.53,3.505l.107.5-6.567,1.277-.1-.491a2.852,2.852,0,0,0-1.181-2.073,2.866,2.866,0,0,0-1.41-.313,6.417,6.417,0,0,0-1.209.129,3.809,3.809,0,0,0-2.226,1.2,5.921,5.921,0,0,0-1.246,2.292,10.225,10.225,0,0,0-.4,2.855,14.659,14.659,0,0,0,.242,2.769,6.872,6.872,0,0,0,.492,1.557,3.129,3.129,0,0,0,.808,1.091,3,3,0,0,0,1.186.608,3.685,3.685,0,0,0,1.631,0,3.78,3.78,0,0,0,1.421-.561,4.369,4.369,0,0,0,1.02-.966,4.034,4.034,0,0,0,.631-1.228,7.842,7.842,0,0,0,.311-1.458l.042-.364,6.614-1.286-.088.686a12.812,12.812,0,0,1-2.844,6.885,11.075,11.075,0,0,1-6.5,3.512A14.812,14.812,0,0,1-584.76-1158.476Zm3.742-22.387a13.94,13.94,0,0,0-2.654.265,11.041,11.041,0,0,0-4.474,1.86,10.244,10.244,0,0,0-2.917,3.287,11.982,11.982,0,0,0-1.394,4.3,15.21,15.21,0,0,0,.18,4.877c.548,2.823,1.7,4.768,3.417,5.779a7.969,7.969,0,0,0,4.1,1.018h0a13.805,13.805,0,0,0,2.615-.271,10.106,10.106,0,0,0,5.932-3.182,11.493,11.493,0,0,0,2.507-5.67l-4.53.88a8.886,8.886,0,0,1-.3,1.279,5.031,5.031,0,0,1-.787,1.532,5.367,5.367,0,0,1-1.252,1.188,4.772,4.772,0,0,1-1.795.717,5.7,5.7,0,0,1-1.076.11,3.9,3.9,0,0,1-1-.124,4,4,0,0,1-1.576-.812,4.122,4.122,0,0,1-1.069-1.435,7.875,7.875,0,0,1-.565-1.785,15.659,15.659,0,0,1-.26-2.96,11.224,11.224,0,0,1,.437-3.134,6.913,6.913,0,0,1,1.456-2.674,4.836,4.836,0,0,1,2.785-1.523,7.42,7.42,0,0,1,1.4-.147,3.84,3.84,0,0,1,1.9.441,3.494,3.494,0,0,1,1.56,2.266l4.59-.893a7.338,7.338,0,0,0-1.226-2.61,6.063,6.063,0,0,0-2.237-1.827,8.173,8.173,0,0,0-2.965-.728C-580.483-1180.854-580.751-1180.863-581.018-1180.863Zm-138.518,20a7.713,7.713,0,0,1-1.105-.077,6.78,6.78,0,0,1-2.467-.821,5.088,5.088,0,0,1-1.711-1.609,5.9,5.9,0,0,1-.858-2.124,6.561,6.561,0,0,1,1.2-5.507,11.024,11.024,0,0,1,5.529-3.479c1.276-.41,2.408-.755,3.364-1.023a13.844,13.844,0,0,0,2.259-.811,2.617,2.617,0,0,0,1.086-.845,1.635,1.635,0,0,0,.114-1.2,1.613,1.613,0,0,0-.442-.913,2.093,2.093,0,0,0-.834-.466,3.344,3.344,0,0,0-1.054-.131,6.962,6.962,0,0,0-1.1.118,4.6,4.6,0,0,0-2.285,1.122,2.718,2.718,0,0,0-.853,2.165l.006.418-6.2,1.205-.029-.576a7.883,7.883,0,0,1,.6-3.66,8.021,8.021,0,0,1,1.918-2.654,9.857,9.857,0,0,1,2.831-1.775,17.245,17.245,0,0,1,3.37-1.012,22.915,22.915,0,0,1,2.97-.369c.238-.015.476-.022.709-.022a10.1,10.1,0,0,1,2.334.266,5.975,5.975,0,0,1,2.588,1.319,4.82,4.82,0,0,1,1.466,2.906,17.119,17.119,0,0,1,.24,3.6l-.221,8.549a6.463,6.463,0,0,0,.045,1.294c.066.546.134.994.207,1.369a3.85,3.85,0,0,0,.378,1.005l.307.593-6.722,1.306-.26-1.338a7.5,7.5,0,0,1-1.891,1.623,10.5,10.5,0,0,1-3.463,1.336A10.7,10.7,0,0,1-719.536-1160.861Zm5.2-20.005a4.332,4.332,0,0,1,1.22.174,3.114,3.114,0,0,1,1.223.683,2.572,2.572,0,0,1,.753,1.463,2.572,2.572,0,0,1-.255,1.93,3.57,3.57,0,0,1-1.49,1.2,14.809,14.809,0,0,1-2.426.874c-.943.265-2.064.605-3.329,1.012a10.066,10.066,0,0,0-5.044,3.14,5.531,5.531,0,0,0-1.01,4.7,4.906,4.906,0,0,0,.713,1.767,4.1,4.1,0,0,0,1.38,1.294,5.79,5.79,0,0,0,2.105.694,6.7,6.7,0,0,0,.962.067,9.7,9.7,0,0,0,1.841-.192,9.506,9.506,0,0,0,3.135-1.209,6.437,6.437,0,0,0,2.245-2.271l.67-1.146.546,2.814,4.463-.867a3.933,3.933,0,0,1-.2-.675c-.078-.4-.149-.87-.218-1.441a7.484,7.484,0,0,1-.05-1.485l.218-8.5a16.123,16.123,0,0,0-.223-3.392l0-.011a3.862,3.862,0,0,0-1.141-2.328,4.985,4.985,0,0,0-2.16-1.1,9.39,9.39,0,0,0-2.751-.219,21.911,21.911,0,0,0-2.841.353,16.25,16.25,0,0,0-3.175.952,8.864,8.864,0,0,0-2.545,1.593,7.026,7.026,0,0,0-1.678,2.325,6.509,6.509,0,0,0-.523,2.619l4.246-.826a3.616,3.616,0,0,1,1.164-2.493,5.59,5.59,0,0,1,2.772-1.369,7.979,7.979,0,0,1,1.257-.136Zm143.655,19.38.392-28.468a17.9,17.9,0,0,1-3.072.864,13.649,13.649,0,0,1-2.592.262,11.1,11.1,0,0,1-1.383-.085,8.13,8.13,0,0,1-3.378-1.19,8.247,8.247,0,0,1-2.517-2.566,11.211,11.211,0,0,1-1.465-3.9,14.985,14.985,0,0,1-.131-5.011,13.78,13.78,0,0,1,1.495-4.6,11.4,11.4,0,0,1,3.107-3.63,11.046,11.046,0,0,1,4.68-2.043,14.716,14.716,0,0,1,2.791-.282,11.975,11.975,0,0,1,1.336.074,8.614,8.614,0,0,1,3.511,1.158,8.281,8.281,0,0,1,2.625,2.566,10.822,10.822,0,0,1,1.512,3.914,18.284,18.284,0,0,1,.313,3.333l0,.415-.408.079-14.508,2.82.034.175.1.512a3.443,3.443,0,0,0,1.445,2.334,3.344,3.344,0,0,0,1.9.5,6.955,6.955,0,0,0,1.316-.138,3.6,3.6,0,0,0,1.25-.473,3.962,3.962,0,0,0,.9-.771,4.314,4.314,0,0,0,.617-.96c.178-.379.342-.747.487-1.095l.1-.248,6.555-1.274-.128.718a15.067,15.067,0,0,1-1.019,3.444,9.48,9.48,0,0,1-1.736,2.641l2.861-.556-.245,15.073,5.818-8.129,8.407-1.634-8.241,10.247,7.884,11.908-7.2,1.4-4.911-8.106-1.871,2.344-.095,7.1Zm1.4-29.367-.387,28.151,4.534-.881.089-6.629,2.979-3.733,5.292,8.736,5.048-.981-7.461-11.269,6.986-8.687-5.334,1.037-6.7,9.368-.722-.486.253-15.516Zm-3.477-20.28a13.718,13.718,0,0,0-2.6.264,10.057,10.057,0,0,0-4.261,1.854,10.4,10.4,0,0,0-2.836,3.312,12.784,12.784,0,0,0-1.385,4.27,13.99,13.99,0,0,0,.123,4.678,10.226,10.226,0,0,0,1.327,3.55,7.255,7.255,0,0,0,2.21,2.26,7.137,7.137,0,0,0,2.966,1.042,10.089,10.089,0,0,0,1.257.077,12.637,12.637,0,0,0,2.4-.244,15.6,15.6,0,0,0,3.563-1.1l.721-.335v.009l.685-.471a7.944,7.944,0,0,0,1.22-1.03,8.469,8.469,0,0,0,1.638-2.454,13.371,13.371,0,0,0,.8-2.494l-4.583.891c-.123.287-.257.584-.4.888a5.309,5.309,0,0,1-.76,1.182,4.96,4.96,0,0,1-1.125.967,4.587,4.587,0,0,1-1.6.611,7.953,7.953,0,0,1-1.507.157,4.319,4.319,0,0,1-2.459-.676,4.452,4.452,0,0,1-1.867-2.973l-.1-.51c-.021-.1-.042-.21-.062-.316a2.309,2.309,0,0,1-.038-.458l0-.409,14.95-2.906a16.852,16.852,0,0,0-.288-2.736,9.835,9.835,0,0,0-1.365-3.554,7.289,7.289,0,0,0-2.307-2.261,7.622,7.622,0,0,0-3.106-1.02A10.949,10.949,0,0,0-572.755-1211.133Zm-97.993,48.114c-.161,0-.326,0-.491-.008a9.535,9.535,0,0,1-3.175-.631,6.87,6.87,0,0,1-2.586-1.781,6.493,6.493,0,0,1-1.49-3.2l-.1-.491,6.544-1.271.074.52a1.976,1.976,0,0,0,.418,1.027,2.2,2.2,0,0,0,.834.6,3.225,3.225,0,0,0,1.122.239,5.489,5.489,0,0,0,1.252-.094,3.741,3.741,0,0,0,1.866-.856,4.592,4.592,0,0,0,1.1-1.613,9.039,9.039,0,0,0,.591-2.316q.065-.5.126-1.022a7.14,7.14,0,0,1-4.318,2.549,10.293,10.293,0,0,1-1.955.2,8.406,8.406,0,0,1-1.61-.152,7.3,7.3,0,0,1-2.985-1.3,8.456,8.456,0,0,1-2.188-2.453,10.631,10.631,0,0,1-1.273-3.451,15.467,15.467,0,0,1-.177-4.7,13.739,13.739,0,0,1,1.287-4.478,11.169,11.169,0,0,1,2.795-3.614,9.34,9.34,0,0,1,4.358-2.034,10.1,10.1,0,0,1,1.917-.193,7.948,7.948,0,0,1,2.208.3,5.578,5.578,0,0,1,2.473,1.527l.018-2.352,6.346-1.234-.314,20.649a16.887,16.887,0,0,1-.632,4.322A8.938,8.938,0,0,1-660.5-1167a9.738,9.738,0,0,1-3.07,2.317,17.572,17.572,0,0,1-4.4,1.4A14.6,14.6,0,0,1-670.747-1163.02Zm-6.651-5.318a5.2,5.2,0,0,0,1.137,2.224,5.877,5.877,0,0,0,2.212,1.524,8.535,8.535,0,0,0,2.842.562c.154,0,.309.007.459.007a13.6,13.6,0,0,0,2.581-.244,16.586,16.586,0,0,0,4.152-1.319,8.747,8.747,0,0,0,2.758-2.076,7.944,7.944,0,0,0,1.591-2.957,15.889,15.889,0,0,0,.59-4.06l.295-19.408-4.334.843-.025,3.225-.8.155-.185-.271a5.071,5.071,0,0,0-2.749-2.148,6.951,6.951,0,0,0-1.93-.264,9.1,9.1,0,0,0-1.726.174,8.352,8.352,0,0,0-3.9,1.812,10.174,10.174,0,0,0-2.546,3.292,12.743,12.743,0,0,0-1.192,4.153,14.467,14.467,0,0,0,.165,4.4,9.639,9.639,0,0,0,1.148,3.127,7.464,7.464,0,0,0,1.928,2.166,6.3,6.3,0,0,0,2.58,1.122,7.4,7.4,0,0,0,1.418.134,9.283,9.283,0,0,0,1.764-.178,6.279,6.279,0,0,0,4.664-3.678l.252-.516.818.55-.029.3c-.1,1.025-.211,2.011-.331,2.932a10.031,10.031,0,0,1-.66,2.573,5.583,5.583,0,0,1-1.342,1.959,4.714,4.714,0,0,1-2.357,1.1,6.5,6.5,0,0,1-1.481.111,4.221,4.221,0,0,1-1.469-.315,3.22,3.22,0,0,1-1.207-.874,2.722,2.722,0,0,1-.54-1.024Zm42.855,3.862.106-9.76,5.662-1.1a8.657,8.657,0,0,1,1.721-.161,5.065,5.065,0,0,1,1.66.288,3.257,3.257,0,0,1,1.424,1.019,4.2,4.2,0,0,1,.818,1.9,5.28,5.28,0,0,1-.728,4.374,6.01,6.01,0,0,1-3.779,2.1Zm1.1-8.934-.083,7.718,5.68-1.1a5.051,5.051,0,0,0,3.176-1.732,4.343,4.343,0,0,0,.539-3.573,3.236,3.236,0,0,0-.607-1.452,2.241,2.241,0,0,0-.99-.714,4.065,4.065,0,0,0-1.333-.23h-.072a7.6,7.6,0,0,0-1.448.143Zm-68.975,8.876.267-22.138,6.352-1.234-.05,1.868a9.333,9.333,0,0,1,5.889-3.574,10.651,10.651,0,0,1,2.015-.21,5.381,5.381,0,0,1,3.7,1.253,6.365,6.365,0,0,1,1.864,3.658,5.664,5.664,0,0,1,.087.9c.011.328.017.672.018,1.051,0,.333,0,.664-.009,1.011-.007.3-.006.546,0,.717v.034l-.207,12.791-6.577,1.278.169-12.983c-.008-.3-.017-.714-.028-1.292a7.306,7.306,0,0,0-.091-1.157,1.3,1.3,0,0,0-.846-.967,2.782,2.782,0,0,0-1.131-.25,2.67,2.67,0,0,0-.511.05,4.438,4.438,0,0,0-1.911.825,5.1,5.1,0,0,0-1.277,1.454,6.767,6.767,0,0,0-.732,1.888,10.875,10.875,0,0,0-.27,2.116l-.185,11.641Zm1.257-21.312-.242,20.1,4.535-.882.172-10.84a11.885,11.885,0,0,1,.295-2.313,7.764,7.764,0,0,1,.843-2.167,6.1,6.1,0,0,1,1.526-1.74,5.425,5.425,0,0,1,2.336-1.019,3.672,3.672,0,0,1,.7-.069,3.773,3.773,0,0,1,1.536.336,2.275,2.275,0,0,1,1.422,1.689,8.1,8.1,0,0,1,.109,1.33c.011.583.019.993.028,1.294v.02l-.153,11.764,4.574-.889.194-11.964c-.01-.2-.011-.45,0-.774.007-.338.01-.662.009-.987,0-.368-.007-.7-.018-1.02a4.792,4.792,0,0,0-.069-.74c-.536-2.762-2.034-4.1-4.579-4.1a9.647,9.647,0,0,0-1.824.192,8.867,8.867,0,0,0-3.61,1.528,8.62,8.62,0,0,0-2.494,2.972l-.112.212-.926.18.079-2.949Zm-16,20.784h0a4.327,4.327,0,0,1-1.533-.275,2.421,2.421,0,0,1-1.569-1.9,3.614,3.614,0,0,1,.071-1.879,3.269,3.269,0,0,1,.868-1.344,4.991,4.991,0,0,1,1.346-.875,12.438,12.438,0,0,1,1.544-.577l.018-.005c.79-.207,1.587-.436,2.369-.682a5.3,5.3,0,0,0,1.946-1.105l.932-.828-.269,3.312a14.714,14.714,0,0,1-.278,1.829,5.638,5.638,0,0,1-.742,1.821,5.44,5.44,0,0,1-1.415,1.488,5.747,5.747,0,0,1-2.3.922A5.186,5.186,0,0,1-717.169-1165.061Zm1.006-5.89a11.437,11.437,0,0,0-1.412.527,4,4,0,0,0-1.079.7,2.25,2.25,0,0,0-.6.938,2.645,2.645,0,0,0-.034,1.361,1.413,1.413,0,0,0,.941,1.156,3.331,3.331,0,0,0,1.18.211h0a4.189,4.189,0,0,0,.8-.08,4.772,4.772,0,0,0,1.9-.749,4.446,4.446,0,0,0,1.157-1.212,4.643,4.643,0,0,0,.61-1.5,13.707,13.707,0,0,0,.259-1.7l.079-.971a6.281,6.281,0,0,1-1.391.63C-714.55-1171.394-715.36-1171.161-716.163-1170.951Zm46.931-4.81h0a3.786,3.786,0,0,1-1.015-.133,3.857,3.857,0,0,1-1.57-.865,4.744,4.744,0,0,1-1.079-1.451,7.212,7.212,0,0,1-.59-1.79,10.435,10.435,0,0,1-.135-2.778,9.872,9.872,0,0,1,.631-2.827,7.167,7.167,0,0,1,1.51-2.374,4.78,4.78,0,0,1,2.593-1.371,6.093,6.093,0,0,1,1.157-.118,3.772,3.772,0,0,1,2.528.878,5.529,5.529,0,0,1,1.761,3.255,10.88,10.88,0,0,1,.154,2.875,9.459,9.459,0,0,1-.65,2.858,6.85,6.85,0,0,1-1.6,2.377,5.289,5.289,0,0,1-2.721,1.365A5.133,5.133,0,0,1-669.232-1175.76Zm1.5-12.706a5.091,5.091,0,0,0-.966.1,3.75,3.75,0,0,0-2.063,1.082,6.172,6.172,0,0,0-1.3,2.044,8.871,8.871,0,0,0-.566,2.54,9.439,9.439,0,0,0,.119,2.511,6.21,6.21,0,0,0,.507,1.542,3.749,3.749,0,0,0,.851,1.148,2.827,2.827,0,0,0,1.168.643,3.34,3.34,0,0,0,1.528.016,4.308,4.308,0,0,0,2.218-1.1,5.858,5.858,0,0,0,1.37-2.032,8.461,8.461,0,0,0,.58-2.556,9.885,9.885,0,0,0-.138-2.611,4.56,4.56,0,0,0-1.43-2.686A2.764,2.764,0,0,0-667.73-1188.466Zm45.071,5.034a4.325,4.325,0,0,1-1.533-.275,2.421,2.421,0,0,1-1.569-1.9,3.619,3.619,0,0,1,.071-1.879,3.279,3.279,0,0,1,.867-1.344,5.027,5.027,0,0,1,1.348-.875,12.453,12.453,0,0,1,1.544-.576l.017,0c.779-.2,1.577-.434,2.369-.683a5.3,5.3,0,0,0,1.946-1.1l.932-.828-.269,3.313a14.521,14.521,0,0,1-.278,1.828,5.625,5.625,0,0,1-.742,1.821,5.4,5.4,0,0,1-1.415,1.488,5.73,5.73,0,0,1-2.3.922A5.209,5.209,0,0,1-622.659-1183.432Zm1.007-5.89a11.431,11.431,0,0,0-1.411.527,4.034,4.034,0,0,0-1.08.7,2.257,2.257,0,0,0-.6.939,2.65,2.65,0,0,0-.034,1.36,1.413,1.413,0,0,0,.94,1.156,3.33,3.33,0,0,0,1.18.21,4.215,4.215,0,0,0,.8-.08,4.756,4.756,0,0,0,1.9-.75,4.407,4.407,0,0,0,1.157-1.212,4.629,4.629,0,0,0,.611-1.5,13.518,13.518,0,0,0,.259-1.7l.079-.973a6.294,6.294,0,0,1-1.391.63C-620.05-1189.762-620.86-1189.529-621.652-1189.321Zm22.94-.147a3.792,3.792,0,0,1-1.016-.133,3.878,3.878,0,0,1-1.57-.863,4.769,4.769,0,0,1-1.08-1.451,7.236,7.236,0,0,1-.589-1.791,10.365,10.365,0,0,1-.135-2.778,9.873,9.873,0,0,1,.631-2.826,7.15,7.15,0,0,1,1.509-2.373,4.778,4.778,0,0,1,2.594-1.372,6.081,6.081,0,0,1,1.156-.118,3.769,3.769,0,0,1,2.528.879,5.52,5.52,0,0,1,1.762,3.254,10.943,10.943,0,0,1,.154,2.874,9.484,9.484,0,0,1-.65,2.858,6.85,6.85,0,0,1-1.6,2.377,5.289,5.289,0,0,1-2.721,1.365A5.13,5.13,0,0,1-598.712-1189.468Zm1.5-12.706a5.088,5.088,0,0,0-.965.1,3.748,3.748,0,0,0-2.064,1.083,6.156,6.156,0,0,0-1.3,2.043,8.877,8.877,0,0,0-.566,2.541,9.367,9.367,0,0,0,.119,2.51,6.234,6.234,0,0,0,.506,1.543,3.772,3.772,0,0,0,.852,1.148,2.884,2.884,0,0,0,1.167.641,3.345,3.345,0,0,0,1.528.016,4.307,4.307,0,0,0,2.217-1.1,5.854,5.854,0,0,0,1.371-2.032,8.485,8.485,0,0,0,.58-2.557,9.944,9.944,0,0,0-.138-2.61,4.551,4.551,0,0,0-1.431-2.685A2.761,2.761,0,0,0-597.21-1202.174Zm17.589.976.111-.7a11.2,11.2,0,0,1,.466-1.883,6.053,6.053,0,0,1,.928-1.734,5.853,5.853,0,0,1,1.516-1.366,6.332,6.332,0,0,1,2.185-.826,6.521,6.521,0,0,1,1.231-.129,3.864,3.864,0,0,1,1.035.13,3.316,3.316,0,0,1,1.564.92,4.481,4.481,0,0,1,.9,1.453,9.461,9.461,0,0,1,.464,1.609l.1.491Zm6.438-5.643a5.533,5.533,0,0,0-1.04.111,5.342,5.342,0,0,0-1.84.689,4.857,4.857,0,0,0-1.259,1.131,5.057,5.057,0,0,0-.775,1.448,10.105,10.105,0,0,0-.287,1l8.074-1.569a8.429,8.429,0,0,0-.3-.95,3.487,3.487,0,0,0-.7-1.131,2.3,2.3,0,0,0-1.1-.639A2.871,2.871,0,0,0-573.183-1206.841Z" transform="translate(758.664 1217.988)" fill="rgba(0,0,0,0)"/><g transform="matrix(1, 0, 0, 1, 0, 0)" filter="url(#b)"><path d="M32.062-48.741a50.545,50.545,0,0,1-2.7,10.242,38.158,38.158,0,0,0-5.121-.27,74.565,74.565,0,0,0-18.6,1.752c.135-2.83.27-7.142.674-12.937A432.326,432.326,0,0,0,53.758-54.67c2.83-.4,3.369-.4,5.256-.539l-.674-15.5c-10.376,3.234-29.512,5.929-51.073,7.142C8.076-73,8.615-76.5,9.693-80.139l-16.71-.809a7.585,7.585,0,0,1,.27,2.156c0,2.56-.135,5.929-.27,7.681-.4,5.39-.4,5.39-.539,8.085h-2.965c-11.185,0-19.136-.674-25.2-2.021v15.093c1.482-.135,2.7-.135,3.1-.135h2.56c13.072.4,20.348.539,21.831.539-.27,6.468-.539,11.859-.539,16.171-8.085,3.5-13.072,6.873-18.462,12.128-8.624,8.49-13.341,19.136-13.341,30.186,0,14.015,8.49,23.583,21.022,23.583,11.185,0,23.178-6.6,35.307-19.405C25.459,3.006,31.793-6.7,39.2-22.733,48.772-19.5,54.3-12.626,54.3-4.136c0,9.3-4.986,15.9-15.767,21.022-7.951,3.773-14.823,5.256-25.739,5.39,4.447,7.007,5.66,9.433,7.142,15.228,11.859-1.213,19.54-3.234,27.491-7.142C62.652,22.815,70.6,11.361,70.6-3.328c0-10.646-4.177-19-12.8-25.469a36.285,36.285,0,0,0-14.015-6.6c.4-1.213.539-1.348,1.887-5.121a31.121,31.121,0,0,1,1.617-3.908ZM-8.5-18.016c0,13.071.674,21.7,2.426,30.455-4.312,3.5-7.951,5.121-11.724,5.121-4.717,0-7.681-3.773-7.681-9.837,0-5.66,2.021-11.185,6.064-16.44C-16.72-12.087-14.429-14.108-8.5-18.016ZM6.728,2.332A5.528,5.528,0,0,1,6.593.85,7.119,7.119,0,0,0,6.458-.9C5.65-10.335,5.65-11.683,5.515-24.08a49.508,49.508,0,0,1,16.171-2.426,31.646,31.646,0,0,1,3.5.135C20.2-15.186,14.813-6.562,8.48.58A12.442,12.442,0,0,0,7,2.467Z" transform="translate(93.98 146.5)" fill="#fff"/></g><g transform="matrix(1, 0, 0, 1, 0, 0)" filter="url(#d)"><path d="M-70.972-4.466l2.332-11.242h-3.476L-74.294-5.214q-.132.528-.264,1.023a2.706,2.706,0,0,1-.385.858,1.88,1.88,0,0,1-.66.583,2.241,2.241,0,0,1-1.067.22A1.958,1.958,0,0,1-77.847-2.9,1.271,1.271,0,0,1-78.364-4a4.34,4.34,0,0,1,.1-.858q.1-.484.209-.99H-81.18q-.11.616-.2,1.2a8.177,8.177,0,0,0-.088,1.221,3.629,3.629,0,0,0,.4,1.76A3.336,3.336,0,0,0-80.014-.5,4.426,4.426,0,0,0-78.5.154a7.9,7.9,0,0,0,1.782.2A5.49,5.49,0,0,0-72.831-.891,6.8,6.8,0,0,0-70.972-4.466Zm3.454-3.454h2.926a1.772,1.772,0,0,1,.814-1.265,2.792,2.792,0,0,1,1.5-.407,4.081,4.081,0,0,1,.649.055,2.1,2.1,0,0,1,.638.209,1.437,1.437,0,0,1,.5.418,1.145,1.145,0,0,1,.2.7,1.15,1.15,0,0,1-.264.825,1.693,1.693,0,0,1-.8.418,7.88,7.88,0,0,1-1.353.209q-.814.066-1.914.2a5.776,5.776,0,0,0-3.2,1.232,3.331,3.331,0,0,0-1.133,2.64,2.969,2.969,0,0,0,.22,1.133,2.52,2.52,0,0,0,.682.946,3.44,3.44,0,0,0,1.155.649A4.9,4.9,0,0,0-65.3.286a5.485,5.485,0,0,0,1.914-.341A3.793,3.793,0,0,0-61.82-1.122V0H-58.7a2.378,2.378,0,0,1-.11-.66q0-.33.033-.781a3.826,3.826,0,0,1,.121-.759l1.012-4.576A9.078,9.078,0,0,0-57.4-8.69a2.375,2.375,0,0,0-.429-1.551,3,3,0,0,0-1.155-.9,5.424,5.424,0,0,0-1.54-.429,12.319,12.319,0,0,0-1.606-.11,9.19,9.19,0,0,0-1.87.187,5.119,5.119,0,0,0-1.628.627,4.105,4.105,0,0,0-1.232,1.155A4.049,4.049,0,0,0-67.518-7.92Zm6.6,2.464-.308,1.1a7.751,7.751,0,0,1-.33.924,2.815,2.815,0,0,1-.539.825,2.7,2.7,0,0,1-.836.594,2.879,2.879,0,0,1-1.221.231,2.236,2.236,0,0,1-1.2-.319,1.051,1.051,0,0,1-.517-.957,1.713,1.713,0,0,1,.2-.869,1.52,1.52,0,0,1,.517-.539,2.464,2.464,0,0,1,.737-.3,6.545,6.545,0,0,1,.858-.143q.682-.044,1.364-.121A3.175,3.175,0,0,0-60.918-5.456Zm6.688-5.918L-57.486,3.982h3.1l1.188-5.5h.066a2.258,2.258,0,0,0,.517.8,3.052,3.052,0,0,0,.77.561,3.842,3.842,0,0,0,.924.33,4.5,4.5,0,0,0,.979.11A5.58,5.58,0,0,0-47.2-.352a5.858,5.858,0,0,0,1.925-1.694,7.4,7.4,0,0,0,1.144-2.4,10.2,10.2,0,0,0,.374-2.75,4.631,4.631,0,0,0-1.122-3.278,4.135,4.135,0,0,0-3.19-1.21,4.673,4.673,0,0,0-1.969.418A3.143,3.143,0,0,0-51.48-9.922l-.044-.044.308-1.408ZM-49.1-9.328a2.137,2.137,0,0,1,.968.209,2.059,2.059,0,0,1,.693.55,2.389,2.389,0,0,1,.418.8,3.255,3.255,0,0,1,.143.968,6.881,6.881,0,0,1-.2,1.584,5.462,5.462,0,0,1-.616,1.54,3.842,3.842,0,0,1-1.056,1.166,2.555,2.555,0,0,1-1.54.462,2.063,2.063,0,0,1-1.694-.671,2.742,2.742,0,0,1-.55-1.793,6.593,6.593,0,0,1,.209-1.573,5.809,5.809,0,0,1,.638-1.573,4.011,4.011,0,0,1,1.067-1.2A2.478,2.478,0,0,1-49.1-9.328Zm7.656,1.408h2.926a1.772,1.772,0,0,1,.814-1.265,2.792,2.792,0,0,1,1.5-.407,4.081,4.081,0,0,1,.649.055,2.1,2.1,0,0,1,.638.209,1.437,1.437,0,0,1,.5.418,1.145,1.145,0,0,1,.2.7,1.15,1.15,0,0,1-.264.825,1.693,1.693,0,0,1-.8.418,7.88,7.88,0,0,1-1.353.209q-.814.066-1.914.2a5.776,5.776,0,0,0-3.2,1.232A3.331,3.331,0,0,0-42.9-2.684a2.969,2.969,0,0,0,.22,1.133A2.52,2.52,0,0,0-42-.605a3.44,3.44,0,0,0,1.155.649,4.9,4.9,0,0,0,1.617.242,5.485,5.485,0,0,0,1.914-.341A3.793,3.793,0,0,0-35.75-1.122V0h3.124a2.378,2.378,0,0,1-.11-.66q0-.33.033-.781a3.826,3.826,0,0,1,.121-.759l1.012-4.576a9.078,9.078,0,0,0,.242-1.914,2.375,2.375,0,0,0-.429-1.551,3,3,0,0,0-1.155-.9,5.424,5.424,0,0,0-1.54-.429,12.319,12.319,0,0,0-1.606-.11,9.19,9.19,0,0,0-1.87.187,5.119,5.119,0,0,0-1.628.627,4.105,4.105,0,0,0-1.232,1.155A4.049,4.049,0,0,0-41.448-7.92Zm6.6,2.464-.308,1.1a7.751,7.751,0,0,1-.33.924,2.815,2.815,0,0,1-.539.825,2.7,2.7,0,0,1-.836.594,2.879,2.879,0,0,1-1.221.231,2.237,2.237,0,0,1-1.2-.319,1.051,1.051,0,0,1-.517-.957,1.713,1.713,0,0,1,.2-.869,1.52,1.52,0,0,1,.517-.539,2.464,2.464,0,0,1,.737-.3,6.544,6.544,0,0,1,.858-.143q.682-.044,1.364-.121A3.175,3.175,0,0,0-34.848-5.456Zm6.82-5.918L-30.382,0h3.1L-26-6.05a6.2,6.2,0,0,1,.385-1.166,3.952,3.952,0,0,1,.638-1.012,3.065,3.065,0,0,1,.924-.715,2.7,2.7,0,0,1,1.243-.275,1.753,1.753,0,0,1,1.023.33.987.987,0,0,1,.473.836,4.248,4.248,0,0,1-.077.682q-.077.44-.121.7L-22.9,0h3.124l1.408-6.666q.022-.154.077-.407t.11-.539q.055-.286.1-.561a2.97,2.97,0,0,0,.044-.451q0-3.058-3.322-3.058A4.859,4.859,0,0,0-25.344-9.79h-.044l.352-1.584ZM-7.92-6.908h-5.214a5.883,5.883,0,0,1,.429-.924,3.04,3.04,0,0,1,.627-.77,2.929,2.929,0,0,1,.88-.528,3.185,3.185,0,0,1,1.166-.2,2.471,2.471,0,0,1,1.1.209,1.544,1.544,0,0,1,.638.561,2.188,2.188,0,0,1,.3.781A4.909,4.909,0,0,1-7.92-6.908Zm-5.544,1.98h8.382A9.764,9.764,0,0,0-4.906-6.71a5.659,5.659,0,0,0-.385-2.167,4.255,4.255,0,0,0-1.078-1.562,4.439,4.439,0,0,0-1.672-.935,7.2,7.2,0,0,0-2.167-.308,5.773,5.773,0,0,0-2.618.583,5.961,5.961,0,0,0-1.969,1.562,7.269,7.269,0,0,0-1.243,2.244,7.945,7.945,0,0,0-.44,2.629,5.876,5.876,0,0,0,.363,2.156A4.244,4.244,0,0,0-15.092-.957a4.176,4.176,0,0,0,1.6.935,6.619,6.619,0,0,0,2.079.308A8.694,8.694,0,0,0-9.251.044,5,5,0,0,0-7.612-.693,4.91,4.91,0,0,0-6.4-1.914a7.983,7.983,0,0,0,.88-1.694H-8.646q-.176.264-.385.55a2.639,2.639,0,0,1-.484.506,2.451,2.451,0,0,1-.638.363,2.237,2.237,0,0,1-.825.143,2.576,2.576,0,0,1-1.892-.616,2.172,2.172,0,0,1-.616-1.606V-4.73A1.02,1.02,0,0,1-13.464-4.928ZM3.674-8.052h2.9a3.669,3.669,0,0,0-.352-1.8A2.877,2.877,0,0,0,5.2-10.967,4.2,4.2,0,0,0,3.7-11.528a10.071,10.071,0,0,0-1.782-.154,8.3,8.3,0,0,0-1.705.187,5.571,5.571,0,0,0-1.639.616A3.707,3.707,0,0,0-2.651-9.768a2.9,2.9,0,0,0-.473,1.694A3.431,3.431,0,0,0-2.959-6.93a2.176,2.176,0,0,0,.484.792,2.713,2.713,0,0,0,.77.55A8.6,8.6,0,0,0-.66-5.17l2.4.77a2.808,2.808,0,0,1,.814.418,1,1,0,0,1,.308.836,1.112,1.112,0,0,1-.176.649,1.413,1.413,0,0,1-.462.418,2.006,2.006,0,0,1-.638.231,3.812,3.812,0,0,1-.7.066,3.389,3.389,0,0,1-.8-.1,2.679,2.679,0,0,1-.726-.286,1.606,1.606,0,0,1-.517-.473,1.168,1.168,0,0,1-.2-.682V-3.7H-4.246v.462a3.008,3.008,0,0,0,.44,1.683A3.39,3.39,0,0,0-2.673-.473,5.037,5.037,0,0,0-1.122.11,8.414,8.414,0,0,0,.572.286,9.746,9.746,0,0,0,2.53.088a5.486,5.486,0,0,0,1.738-.66,3.741,3.741,0,0,0,1.243-1.2,3.251,3.251,0,0,0,.473-1.793A3.052,3.052,0,0,0,5.753-4.8a2.771,2.771,0,0,0-.638-.913,3.793,3.793,0,0,0-.946-.649A8.2,8.2,0,0,0,2.992-6.82L1.43-7.326A3.375,3.375,0,0,1,.319-7.832.8.8,0,0,1,0-8.47a.886.886,0,0,1,.539-.869,3.243,3.243,0,0,1,1.375-.253,1.83,1.83,0,0,1,1.331.407A1.6,1.6,0,0,1,3.674-8.052ZM16.126-6.908H10.912a5.883,5.883,0,0,1,.429-.924,3.04,3.04,0,0,1,.627-.77,2.929,2.929,0,0,1,.88-.528,3.185,3.185,0,0,1,1.166-.2,2.471,2.471,0,0,1,1.1.209,1.544,1.544,0,0,1,.638.561,2.188,2.188,0,0,1,.3.781A4.909,4.909,0,0,1,16.126-6.908Zm-5.544,1.98h8.382A9.764,9.764,0,0,0,19.14-6.71a5.659,5.659,0,0,0-.385-2.167,4.255,4.255,0,0,0-1.078-1.562A4.439,4.439,0,0,0,16-11.374a7.2,7.2,0,0,0-2.167-.308,5.773,5.773,0,0,0-2.618.583A5.961,5.961,0,0,0,9.251-9.537,7.269,7.269,0,0,0,8.008-7.293a7.945,7.945,0,0,0-.44,2.629,5.876,5.876,0,0,0,.363,2.156A4.244,4.244,0,0,0,8.954-.957a4.176,4.176,0,0,0,1.6.935,6.619,6.619,0,0,0,2.079.308A8.694,8.694,0,0,0,14.8.044a5,5,0,0,0,1.639-.737,4.91,4.91,0,0,0,1.21-1.221,7.983,7.983,0,0,0,.88-1.694H15.4q-.176.264-.385.55a2.639,2.639,0,0,1-.484.506,2.451,2.451,0,0,1-.638.363,2.237,2.237,0,0,1-.825.143,2.576,2.576,0,0,1-1.892-.616,2.172,2.172,0,0,1-.616-1.606V-4.73A1.02,1.02,0,0,1,10.582-4.928Zm10.56-2.42L20.57-4.664h6.622l.572-2.684Zm11-8.36L28.864,0H39.908l.616-2.9h-7.59l2.684-12.8ZM42.878-7.92H45.8a1.772,1.772,0,0,1,.814-1.265,2.792,2.792,0,0,1,1.5-.407,4.081,4.081,0,0,1,.649.055,2.1,2.1,0,0,1,.638.209,1.437,1.437,0,0,1,.5.418,1.145,1.145,0,0,1,.2.7,1.15,1.15,0,0,1-.264.825,1.693,1.693,0,0,1-.8.418,7.88,7.88,0,0,1-1.353.209q-.814.066-1.914.2a5.776,5.776,0,0,0-3.2,1.232,3.331,3.331,0,0,0-1.133,2.64,2.969,2.969,0,0,0,.22,1.133,2.52,2.52,0,0,0,.682.946,3.44,3.44,0,0,0,1.155.649A4.9,4.9,0,0,0,45.1.286a5.485,5.485,0,0,0,1.914-.341,3.793,3.793,0,0,0,1.562-1.067V0H51.7a2.378,2.378,0,0,1-.11-.66q0-.33.033-.781a3.826,3.826,0,0,1,.121-.759l1.012-4.576A9.078,9.078,0,0,0,53-8.69a2.375,2.375,0,0,0-.429-1.551,3,3,0,0,0-1.155-.9,5.424,5.424,0,0,0-1.54-.429,12.319,12.319,0,0,0-1.606-.11,9.19,9.19,0,0,0-1.87.187,5.119,5.119,0,0,0-1.628.627,4.105,4.105,0,0,0-1.232,1.155A4.049,4.049,0,0,0,42.878-7.92Zm6.6,2.464-.308,1.1a7.751,7.751,0,0,1-.33.924,2.815,2.815,0,0,1-.539.825,2.7,2.7,0,0,1-.836.594,2.879,2.879,0,0,1-1.221.231,2.236,2.236,0,0,1-1.2-.319,1.051,1.051,0,0,1-.517-.957,1.713,1.713,0,0,1,.2-.869,1.52,1.52,0,0,1,.517-.539,2.464,2.464,0,0,1,.737-.3,6.544,6.544,0,0,1,.858-.143q.682-.044,1.364-.121A3.175,3.175,0,0,0,49.478-5.456Zm6.82-5.918L53.944,0h3.1l1.276-6.05a6.2,6.2,0,0,1,.385-1.166,3.952,3.952,0,0,1,.638-1.012,3.065,3.065,0,0,1,.924-.715,2.7,2.7,0,0,1,1.243-.275,1.753,1.753,0,0,1,1.023.33.987.987,0,0,1,.473.836,4.247,4.247,0,0,1-.077.682q-.077.44-.121.7L61.424,0h3.124l1.408-6.666q.022-.154.077-.407t.11-.539q.055-.286.1-.561a2.969,2.969,0,0,0,.044-.451q0-3.058-3.322-3.058A4.859,4.859,0,0,0,58.982-9.79h-.044l.352-1.584ZM78.342-.594l2.266-10.78H77.616l-.352,1.738H77.22a3.043,3.043,0,0,0-1.386-1.584,4.523,4.523,0,0,0-2.09-.462,4.842,4.842,0,0,0-2.431.605,5.84,5.84,0,0,0-1.8,1.584,7.252,7.252,0,0,0-1.122,2.2A8.185,8.185,0,0,0,68-4.818a5.54,5.54,0,0,0,.308,1.9,4.355,4.355,0,0,0,.869,1.463,3.721,3.721,0,0,0,1.375.946,4.821,4.821,0,0,0,1.826.33A3.743,3.743,0,0,0,75.5-1.782l.044.044q-.242.814-.484,1.54a5.238,5.238,0,0,1-.594,1.254,2.786,2.786,0,0,1-.847.836A2.314,2.314,0,0,1,72.38,2.2a3.256,3.256,0,0,1-.748-.088,2.04,2.04,0,0,1-.671-.286,1.488,1.488,0,0,1-.473-.506,1.345,1.345,0,0,1-.154-.748h-3.1a3.284,3.284,0,0,0,.429,1.738,3.485,3.485,0,0,0,1.122,1.144,4.933,4.933,0,0,0,1.562.638,7.754,7.754,0,0,0,1.727.2A9.351,9.351,0,0,0,74.525,4a5.054,5.054,0,0,0,1.8-.88,4.613,4.613,0,0,0,1.243-1.518A8.969,8.969,0,0,0,78.342-.594ZM74.316-9.328a2.031,2.031,0,0,1,1.694.693,2.761,2.761,0,0,1,.55,1.771,5.7,5.7,0,0,1-.209,1.5,4.908,4.908,0,0,1-.616,1.4A3.475,3.475,0,0,1,74.7-2.937a2.627,2.627,0,0,1-1.463.407,2.094,2.094,0,0,1-.946-.2,1.845,1.845,0,0,1-.66-.55,2.33,2.33,0,0,1-.385-.8,3.679,3.679,0,0,1-.121-.957,5.432,5.432,0,0,1,.209-1.441,5.128,5.128,0,0,1,.6-1.386,3.64,3.64,0,0,1,.99-1.045A2.347,2.347,0,0,1,74.316-9.328Z" transform="translate(109 207)" fill="#fff"/></g></g></svg>