<svg xmlns="http://www.w3.org/2000/svg" xmlns:xlink="http://www.w3.org/1999/xlink" width="326" height="326" viewBox="0 0 326 326"><defs><clipPath id="b"><rect width="326" height="326"/></clipPath></defs><g id="a" clip-path="url(#b)"><rect width="326" height="326"/><g transform="translate(23.222 70.914)"><g transform="translate(0.203 0.287)"><g transform="translate(0 0)"><g transform="translate(0 0)"><path d="M48.942,44h52.65v4.165H53.768V79.508H98.741v4.165H53.768v34.413h48.372v4.165h-53.2Zm57.367,0H111.9l24.79,34.413L162.031,44,196.494.287,139.874,82.029l29.177,40.221h-5.813l-26.545-36.6-26.654,36.6h-5.7l29.4-40.221Zm64.826,4.165V44h60v4.165H203.493V122.25h-4.826V48.164Z" transform="translate(16.925 -0.287)" fill="#fff"/><path d="M.2,32.632H6.236L89.425,156.519,55.047,110.883,5.249,38.55l-.219,72.333H.2Z" transform="translate(-0.203 11.08)" fill="#fff"/></g><path d="M183.845,91.07a1.743,1.743,0,1,0-1.726-1.743A1.694,1.694,0,0,0,183.845,91.07Zm4.742-4.585c0,2.9,2.1,4.8,5.165,4.8,3.263,0,5.235-1.953,5.235-5.346V73.992h-2.629V85.923c0,1.883-.951,2.889-2.629,2.889a2.354,2.354,0,0,1-2.559-2.328Zm13.84-.152c.188,3.018,2.712,4.948,6.468,4.948,4.015,0,6.527-2.024,6.527-5.252,0-2.538-1.432-3.942-4.907-4.749l-1.866-.456c-2.207-.515-3.1-1.2-3.1-2.41,0-1.521,1.385-2.515,3.463-2.515,1.972,0,3.334.971,3.58,2.527h2.559c-.153-2.842-2.665-4.843-6.1-4.843-3.7,0-6.163,2-6.163,5.007,0,2.48,1.4,3.954,4.461,4.667l2.183.526c2.242.526,3.228,1.3,3.228,2.585,0,1.5-1.549,2.585-3.662,2.585-2.266,0-3.839-1.018-4.062-2.62Z" transform="translate(63.728 25.471)" fill="#fff"/></g></g></g></g></svg>